<?xml version="1.0" standalone="no"?>
<!DOCTYPE svg PUBLIC "-//W3C//DTD SVG 20010904//EN"
 "http://www.w3.org/TR/2001/REC-SVG-20010904/DTD/svg10.dtd">
<svg version="1.0" xmlns="http://www.w3.org/2000/svg"
 width="96.000000pt" height="96.000000pt" viewBox="0 0 96.000000 96.000000"
 preserveAspectRatio="xMidYMid meet">
<metadata>
Created by potrace 1.14, written by Peter Selinger 2001-2017
</metadata>
<g transform="translate(0.000000,96.000000) scale(0.100000,-0.100000)"
fill="#000000" stroke="none">
<path d="M10 464 c0 -324 3 -414 13 -415 46 -5 115 -3 128 3 13 6 15 40 15
270 -1 145 -5 269 -9 276 -5 7 -3 12 5 12 12 0 65 -99 59 -109 -2 -2 1 -7 7
-10 5 -3 40 -67 77 -141 38 -74 75 -147 82 -163 17 -32 46 -50 90 -53 26 -1
39 5 63 32 16 19 33 46 36 59 3 14 10 25 15 25 5 0 9 9 9 19 0 11 3 21 8 23 4
2 41 71 82 153 41 83 78 152 83 153 4 2 5 8 1 13 -3 5 -1 9 4 9 5 0 8 -20 8
-45 -1 -25 -4 -45 -7 -45 -7 0 -4 -69 4 -76 3 -4 2 -16 -3 -28 -4 -13 -4 -29
1 -39 6 -9 6 -17 2 -17 -4 0 -8 -22 -8 -50 0 -27 3 -50 7 -50 4 0 3 -11 -2
-25 -6 -15 -6 -27 0 -30 5 -3 6 -15 0 -29 -4 -13 -4 -29 0 -37 5 -8 5 -16 -1
-20 -6 -4 -6 -15 0 -32 8 -19 7 -27 0 -27 -8 0 -8 -4 -1 -12 7 -9 36 -13 83
-12 65 0 73 2 80 22 5 13 4 22 -2 22 -6 0 -6 7 1 20 8 14 8 20 0 20 -8 0 -8 6
0 20 8 14 8 20 0 20 -8 0 -8 6 0 20 8 14 8 20 0 20 -8 0 -8 6 0 20 8 14 8 20
0 20 -8 0 -8 6 0 20 6 11 7 20 2 20 -10 0 -8 34 3 63 4 10 3 17 -4 17 -7 0 -8
8 -1 24 5 15 5 27 -3 35 -6 6 -7 11 -2 11 6 0 10 11 10 25 0 14 -3 25 -7 25
-4 0 -3 11 2 24 5 15 5 27 -3 35 -6 6 -7 11 -2 11 6 0 10 11 10 25 0 14 -4 25
-8 25 -4 0 -4 7 1 17 6 9 6 29 2 45 -5 15 -5 28 -1 28 9 0 12 21 14 105 l2 70
-94 2 c-93 2 -95 1 -122 -28 -16 -17 -28 -34 -27 -37 1 -4 -8 -27 -21 -52
-109 -209 -168 -330 -163 -330 4 0 2 -4 -3 -8 -10 -7 -29 -43 -39 -74 -6 -20
-26 -24 -26 -6 0 16 -81 181 -93 189 -5 3 -8 9 -8 13 1 9 -103 220 -112 227
-5 3 -8 8 -6 10 5 8 -41 87 -53 91 -7 3 -50 5 -95 6 l-83 1 0 -415z"/>
</g>
</svg>
